<?xml version="1.0" standalone="no"?>
<!DOCTYPE svg PUBLIC "-//W3C//DTD SVG 20010904//EN"
 "http://www.w3.org/TR/2001/REC-SVG-20010904/DTD/svg10.dtd">
<svg version="1.0" xmlns="http://www.w3.org/2000/svg"
 width="743.000000pt" height="743.000000pt" viewBox="0 0 743.000000 743.000000"
 preserveAspectRatio="xMidYMid meet">
<metadata>
Created by potrace 1.11, written by Peter Selinger 2001-2013
</metadata>
<g transform="translate(0.000000,743.000000) scale(0.100000,-0.100000)"
fill="#000000" stroke="none">
<path d="M3550 5965 c-100 -16 -161 -34 -182 -52 -21 -19 -23 -63 -7 -163 l10
-69 -34 -31 c-45 -39 -76 -105 -96 -208 l-16 -84 -54 -18 c-126 -45 -292 -165
-420 -306 -67 -73 -155 -222 -205 -349 -37 -94 -40 -107 -41 -205 0 -62 -5
-114 -12 -126 -20 -35 -46 -224 -39 -282 5 -43 3 -59 -12 -80 -76 -109 -37
-309 87 -446 l51 -56 0 -83 c-1 -103 -35 -237 -82 -314 -65 -109 -185 -203
-259 -203 -33 0 -140 34 -172 55 -13 8 -29 26 -35 40 -14 30 -65 35 -80 9 -24
-43 44 -141 124 -180 51 -25 62 -26 148 -22 89 5 98 8 181 52 47 27 89 45 92
42 8 -8 -42 -81 -78 -114 -16 -15 -58 -43 -92 -62 -49 -28 -63 -42 -65 -63 -3
-20 2 -29 21 -38 21 -9 35 -6 88 20 35 16 83 48 107 69 23 22 42 39 42 38 0
-14 -67 -201 -82 -226 -19 -34 -88 -83 -156 -110 -56 -22 -53 -90 4 -90 13 0
43 9 67 19 74 34 120 51 125 47 2 -3 -31 -58 -73 -123 -210 -322 -285 -450
-285 -486 0 -7 -26 -28 -57 -47 -122 -74 -159 -129 -128 -190 22 -43 70 -60
179 -67 58 -3 109 -12 141 -25 59 -25 136 -26 170 -4 32 21 64 83 71 140 5 37
13 49 56 82 77 61 326 331 393 427 8 12 17 18 21 14 12 -12 -50 -102 -113
-164 -35 -34 -63 -67 -63 -73 0 -28 22 -50 49 -50 38 0 138 74 192 142 23 29
44 53 48 52 3 0 19 -4 34 -8 18 -6 32 -5 40 3 11 11 47 16 47 6 0 -3 -30 -34
-67 -68 -109 -99 -153 -148 -200 -220 -77 -117 -96 -170 -97 -269 -1 -77 2
-89 22 -110 12 -13 22 -34 22 -46 0 -25 25 -41 51 -35 11 3 48 -12 89 -37 109
-66 173 -82 315 -79 74 2 128 -1 140 -8 23 -13 147 -33 200 -33 21 0 60 12 88
26 44 22 60 25 107 19 30 -3 96 -1 145 6 50 7 104 12 120 11 30 -2 160 37 223
66 25 11 36 12 45 3 6 -6 22 -11 36 -11 15 0 60 -7 101 -16 148 -32 414 -23
479 17 43 26 63 71 65 148 1 61 -1 69 -34 109 -30 38 -39 43 -66 40 l-32 -4 3
76 c1 41 13 134 25 205 26 151 23 189 -16 270 -29 59 -30 60 -144 119 -63 32
-133 64 -155 71 -22 7 -56 20 -75 28 -19 8 -58 18 -87 22 -80 10 -88 21 -77
91 l9 59 40 -2 c22 -1 70 -7 108 -14 53 -10 85 -10 152 0 130 20 222 46 276
80 49 30 49 30 54 8 5 -20 14 -255 35 -877 5 -140 14 -275 20 -300 20 -79 83
-160 126 -160 42 0 55 13 92 89 l36 76 -2 200 c-2 110 -8 315 -15 455 -6 140
-11 332 -11 427 l1 172 30 28 c45 42 63 84 74 176 11 94 -1 262 -22 296 -8 11
-26 26 -41 32 -22 9 -28 20 -34 56 -4 25 -3 357 1 737 7 655 8 692 26 718 10
14 19 42 19 61 0 41 -37 77 -126 124 l-51 27 -64 -24 c-76 -27 -124 -61 -150
-104 -25 -42 -25 -103 1 -132 21 -21 21 -33 25 -575 2 -305 6 -631 7 -726 l4
-171 -37 -6 c-41 -7 -94 -46 -104 -76 -9 -27 -29 -25 -49 5 -13 19 -25 25 -54
25 -38 0 -114 30 -126 49 -5 7 4 11 26 11 59 0 128 32 169 79 22 24 39 52 39
62 0 63 -51 68 -98 9 -39 -47 -83 -63 -142 -48 -33 9 -47 20 -76 63 -31 47
-34 59 -31 108 2 30 8 61 14 69 50 60 80 274 48 342 -15 31 -14 38 15 127 21
64 33 129 40 204 5 61 16 137 24 170 9 32 16 73 16 90 0 16 4 46 10 64 37 131
15 279 -70 468 -41 90 -122 167 -233 222 l-87 43 0 45 c0 24 -5 54 -11 65 -9
16 -8 35 1 76 17 77 -1 99 -106 131 -43 13 -80 24 -82 26 -1 1 2 25 8 54 17
89 8 96 -158 115 l-96 11 -8 35 c-4 19 -10 66 -13 103 -10 100 -20 107 -147
106 -57 -1 -137 -7 -178 -14z m228 -131 l3 -41 -63 -8 c-35 -4 -88 -9 -118
-10 l-55 -1 3 -35 c4 -39 29 -216 38 -271 7 -38 7 -38 -28 -38 -35 0 -35 0
-48 63 -7 34 -14 71 -17 82 -24 107 -44 258 -36 266 16 16 168 37 248 36 l70
-2 3 -41z m173 -302 c0 -48 3 -99 5 -114 5 -27 3 -28 -41 -28 -40 0 -45 2 -45
23 0 12 -3 32 -6 45 -5 16 -2 22 9 22 25 0 37 33 37 100 0 58 1 60 20 50 18
-9 20 -21 21 -98z m232 -93 c34 -9 37 -12 31 -37 -15 -65 -25 -102 -29 -102
-2 0 -20 8 -40 17 -28 13 -35 22 -31 38 2 11 8 37 11 58 8 42 6 41 58 26z
m-930 -728 c143 -53 188 -71 254 -105 148 -74 181 -77 383 -39 49 9 142 16
220 17 130 0 137 -1 181 -27 90 -53 119 -106 119 -220 l0 -73 -72 -17 c-117
-27 -279 -48 -323 -42 -22 2 -74 7 -115 9 -42 3 -96 9 -120 15 -25 5 -81 9
-125 9 -44 0 -143 9 -220 21 -77 11 -166 21 -199 21 -88 0 -247 28 -330 58
-71 26 -73 28 -64 52 6 14 7 51 4 84 -4 34 -1 75 6 98 14 47 81 126 123 144
48 21 215 18 278 -5z m-676 -856 c35 -22 65 -49 67 -60 26 -131 48 -234 53
-249 5 -18 4 -18 -27 0 -75 44 -148 151 -170 250 -10 46 -5 108 8 102 4 -2 35
-21 69 -43z m1965 -147 c-1 -36 -8 -86 -16 -111 -15 -51 -77 -132 -118 -153
-60 -31 -60 -23 -3 142 49 144 56 157 87 174 18 9 38 16 43 15 6 -1 9 -30 7
-67z m-1696 23 c102 -33 273 -62 454 -76 96 -8 207 -19 245 -25 98 -15 482
-10 575 7 68 12 123 25 173 39 26 8 23 -66 -7 -146 -69 -192 -136 -324 -208
-415 -187 -235 -331 -343 -467 -349 -170 -8 -340 58 -475 185 -173 161 -281
355 -348 622 -21 87 -36 162 -33 167 9 14 24 13 91 -9z m1577 -552 c-7 -38
-15 -102 -18 -142 -7 -100 -26 -227 -34 -227 -3 0 -21 18 -39 40 -33 40 -33
40 -22 102 11 67 20 103 53 208 27 88 33 99 55 93 18 -4 18 -9 5 -74z m933
-141 c11 -34 7 -242 -6 -273 -17 -45 -60 -85 -90 -85 -34 0 -56 25 -63 74 -7
46 6 74 62 134 23 24 41 49 41 56 0 7 -11 25 -25 40 -30 33 -30 34 -5 61 25
27 76 23 86 -7z m-268 -13 c10 -9 18 -64 11 -83 -8 -20 -14 -23 -38 -17 -25 5
-33 2 -47 -20 -23 -35 -10 -56 44 -73 33 -11 42 -19 42 -36 0 -13 -9 -31 -20
-41 -11 -10 -20 -24 -20 -31 0 -27 -31 0 -66 58 -34 56 -36 62 -25 98 6 20 11
55 11 77 0 59 29 87 80 76 14 -3 26 -7 28 -8z m-850 -220 c22 -28 59 -80 81
-117 l41 -67 -9 -71 c-5 -40 -11 -74 -14 -76 -2 -2 -16 20 -32 48 -66 123
-164 248 -195 248 -41 0 -55 -65 -21 -97 22 -21 121 -164 121 -175 0 -4 16
-33 35 -65 19 -32 35 -65 35 -74 0 -21 -116 -132 -133 -127 -6 3 -19 27 -28
54 -19 57 -92 170 -120 185 -41 22 -98 -12 -74 -45 58 -79 105 -154 105 -168
0 -9 9 -33 21 -52 l20 -35 -38 -16 c-50 -22 -166 -46 -174 -37 -10 12 -28 85
-38 157 -6 39 -13 85 -17 103 -5 27 -4 32 12 32 11 0 33 11 49 24 27 22 30 29
30 84 l0 60 50 34 c27 18 55 44 62 58 6 14 13 74 16 133 l4 108 38 39 38 39
48 -67 c26 -37 65 -90 87 -117z m628 58 c-1 -59 3 -75 29 -117 17 -27 45 -65
64 -85 l33 -35 -22 -18 c-34 -27 -67 -33 -85 -14 -9 9 -22 16 -29 16 -38 0
-96 102 -96 167 1 93 32 153 80 153 26 0 27 -1 26 -67z m-1841 -217 l143 -139
6 -64 c4 -35 9 -78 12 -96 l6 -32 -34 36 c-18 20 -55 65 -83 100 -54 70 -140
157 -229 232 -31 27 -64 60 -73 73 -15 24 -15 26 12 54 l28 29 34 -27 c19 -15
99 -89 178 -166z m298 68 c9 -4 17 -14 17 -24 0 -9 23 -51 51 -93 51 -76 73
-91 129 -85 43 4 60 -4 81 -39 33 -53 68 -83 96 -83 19 0 23 -4 19 -22 -4 -27
18 -176 34 -224 6 -19 9 -38 6 -43 -3 -5 -43 -8 -88 -7 l-83 2 -13 59 c-8 39
-11 103 -8 185 3 69 2 130 -2 136 -16 24 -43 24 -68 -1 l-26 -26 4 -169 c2
-123 0 -170 -8 -170 -29 0 -96 40 -119 71 -37 51 -46 76 -55 164 -29 259 -28
395 3 381 7 -3 20 -9 30 -12z m-624 -315 c14 -11 69 -52 121 -91 52 -38 99
-74 104 -78 5 -5 -2 -22 -17 -39 l-26 -31 -59 48 c-33 26 -74 58 -93 72 -19
14 -54 44 -79 67 -44 41 -45 41 -25 63 20 22 33 21 74 -11z m-242 -589 c40
-19 71 -38 70 -41 -1 -3 -24 -25 -51 -48 -35 -31 -53 -40 -68 -35 -49 15 -178
79 -178 87 0 5 17 40 37 78 l37 68 41 -37 c22 -20 73 -53 112 -72z m-160 -184
c54 -25 99 -50 101 -56 6 -18 -27 -60 -49 -60 -11 0 -41 9 -67 19 -29 12 -84
22 -140 25 -120 8 -135 15 -91 47 60 43 104 67 126 68 12 1 66 -19 120 -43z
m2419 -311 c50 -8 120 -15 155 -15 41 0 60 -3 53 -10 -16 -16 -280 -13 -369 4
-44 9 -82 16 -84 16 -2 0 3 8 13 18 18 20 27 20 232 -13z"/>
<path d="M3377 3212 c-19 -21 -22 -54 -7 -83 21 -38 102 -63 127 -38 8 8 26 7
66 -2 49 -10 59 -10 82 5 14 9 30 29 36 44 21 56 -29 95 -72 56 -17 -15 -20
-15 -43 0 -32 20 -55 20 -84 0 -13 -9 -24 -14 -25 -13 -27 52 -53 61 -80 31z"/>
</g>
</svg>
